<svg class="main-svg" xmlns="http://www.w3.org/2000/svg" xmlns:xlink="http://www.w3.org/1999/xlink" width="700" height="500" style="" viewBox="0 0 700 500"><rect x="0" y="0" width="700" height="500" style="fill: rgb(230, 230, 250); fill-opacity: 1;"/><defs id="defs-c73cbd"><g class="clips"/><g class="gradients"/></defs><g class="bglayer"/><g class="layer-below"><g class="imagelayer"/><g class="shapelayer"/></g><g class="cartesianlayer"/><g class="polarlayer"/><g class="ternarylayer"/><g class="geolayer"/><g class="funnelarealayer"/><g class="pielayer"/><g class="treemaplayer"/><g class="sunburstlayer"/><g class="glimages"/><defs id="topdefs-c73cbd"><g class="clips"/></defs><g class="indicatorlayer"><g class="trace"><g class="numbers" transform="translate(350,378) scale(1)"><text text-anchor="middle" class="number" x="0" y="0" style="font-family: Arial; font-size: 80px; fill: rgb(34, 40, 81); fill-opacity: 1; white-space: pre;">3</text></g><g class="angular" transform="translate(350,395)"><g class="bg-arc"><path d="M-270,-3.3065463576978534e-14A270,270 0 0,1 270,0L202.5,0A202.5,202.5 0 0,0 -202.5,-2.4799097682733902e-14Z" style="stroke: rgb(128, 128, 128); stroke-opacity: 1; fill: rgb(255, 255, 255); fill-opacity: 1; stroke-width: 0;"/></g><g class="bg-arc"><path d="M-270,-3.3065463576978534e-14A270,270 0 0,1 -168.34224650185803,-211.09450026636807L-126.25668487639354,-158.32087519977605A202.5,202.5 0 0,0 -202.5,-2.4799097682733902e-14Z" style="stroke: rgb(68, 68, 68); stroke-opacity: 1; fill: rgb(255, 99, 132); fill-opacity: 0.6; stroke-width: 0;"/></g><g class="bg-arc"><path d="M-168.34224650185803,-211.09450026636807A270,270 0 0,1 168.34224650185806,-211.09450026636804L126.25668487639355,-158.32087519977603A202.5,202.5 0 0,0 -126.25668487639354,-158.32087519977605Z" style="stroke: rgb(68, 68, 68); stroke-opacity: 1; fill: rgb(255, 206, 86); fill-opacity: 0.6; stroke-width: 0;"/></g><g class="bg-arc"><path d="M168.34224650185806,-211.09450026636804A270,270 0 0,1 270,0L202.5,0A202.5,202.5 0 0,0 126.25668487639355,-158.32087519977603Z" style="stroke: rgb(68, 68, 68); stroke-opacity: 1; fill: rgb(75, 192, 192); fill-opacity: 0.6; stroke-width: 0;"/></g><g class="value-arc"><path d="M-253.125,-3.0998872103417375e-14A253.125,253.125 0 0,1 -56.325611407692065,-246.7786277710241L-48.81552988666646,-213.87481073488755A219.375,219.375 0 0,0 -219.375,-2.686568915629506e-14Z" style="stroke: rgb(68, 68, 68); stroke-opacity: 1; fill: rgb(57, 67, 135); fill-opacity: 1; stroke-width: 0;"/></g><g class="threshold-arc"><path d="M-60.08065216820487,-263.23053628909236A270,270 0 0,1 -60.08065216820487,-263.23053628909236L-45.060489126153655,-197.4229022168193A202.5,202.5 0 0,0 -45.060489126153655,-197.4229022168193Z" style="stroke: rgb(40, 47, 95); stroke-opacity: 1; fill: rgb(0, 0, 0); fill-opacity: 1; stroke-width: 4;"/></g><g class="gauge-outline"><path d="M-270,-3.3065463576978534e-14A270,270 0 0,1 270,0L202.5,0A202.5,202.5 0 0,0 -202.5,-2.4799097682733902e-14Z" style="stroke: rgb(128, 128, 128); stroke-opacity: 1; fill: rgb(0, 0, 0); fill-opacity: 0; stroke-width: 2;"/></g></g><g class="angularaxis crisp"><path class="xangularaxistick ticks crisp" d="M0.5,0h5" transform="translate(80,394.99999999999994)rotate(-180)" style="stroke: rgb(0, 0, 139); stroke-opacity: 1; stroke-width: 1px;"/><path class="xangularaxistick ticks crisp" d="M0.5,0h5" transform="translate(106.73840566634686,277.8513904382593)rotate(-154.28571428571428)" style="stroke: rgb(0, 0, 139); stroke-opacity: 1; stroke-width: 1px;"/><path class="xangularaxistick ticks crisp" d="M0.5,0h5" transform="translate(181.65775349814197,183.90549973363193)rotate(-128.57142857142858)" style="stroke: rgb(0, 0, 139); stroke-opacity: 1; stroke-width: 1px;"/><path class="xangularaxistick ticks crisp" d="M0.5,0h5" transform="translate(289.9193478317951,131.76946371090764)rotate(-102.85714285714285)" style="stroke: rgb(0, 0, 139); stroke-opacity: 1; stroke-width: 1px;"/><path class="xangularaxistick ticks crisp" d="M0.5,0h5" transform="translate(410.0806521682049,131.76946371090764)rotate(-77.14285714285714)" style="stroke: rgb(0, 0, 139); stroke-opacity: 1; stroke-width: 1px;"/><path class="xangularaxistick ticks crisp" d="M0.5,0h5" transform="translate(518.3422465018581,183.90549973363196)rotate(-51.42857142857142)" style="stroke: rgb(0, 0, 139); stroke-opacity: 1; stroke-width: 1px;"/><path class="xangularaxistick ticks crisp" d="M0.5,0h5" transform="translate(593.2615943336532,277.8513904382593)rotate(-25.71428571428571)" style="stroke: rgb(0, 0, 139); stroke-opacity: 1; stroke-width: 1px;"/><path class="xangularaxistick ticks crisp" d="M0.5,0h5" transform="translate(620,395)rotate(0)" style="stroke: rgb(0, 0, 139); stroke-opacity: 1; stroke-width: 1px;"/><g class="xangularaxistick"><text text-anchor="end" x="-7.9" y="4.199999999999998" transform="translate(80,394.99999999999994)" style="font-family: Arial; font-size: 12px; fill: rgb(34, 40, 81); fill-opacity: 1; white-space: pre;">0</text></g><g class="xangularaxistick"><text text-anchor="end" x="-7.117654056429111" y="-0.684933267720691" transform="translate(106.73840566634686,277.8513904382593)" style="font-family: Arial; font-size: 12px; fill: rgb(34, 40, 81); fill-opacity: 1; white-space: pre;">1</text></g><g class="xangularaxistick"><text text-anchor="end" x="-4.925569434683995" y="-5.434207101614029" transform="translate(181.65775349814197,183.90549973363193)" style="font-family: Arial; font-size: 12px; fill: rgb(34, 40, 81); fill-opacity: 1; white-space: pre;">2</text></g><g class="xangularaxistick"><text text-anchor="end" x="-1.7579153782548833" y="-9.107169572856263" transform="translate(289.9193478317951,131.76946371090764)" style="font-family: Arial; font-size: 12px; fill: rgb(34, 40, 81); fill-opacity: 1; white-space: pre;">3</text></g><g class="xangularaxistick"><text text-anchor="start" x="1.7579153782548842" y="-9.107169572856263" transform="translate(410.0806521682049,131.76946371090764)" style="font-family: Arial; font-size: 12px; fill: rgb(34, 40, 81); fill-opacity: 1; white-space: pre;">4</text></g><g class="xangularaxistick"><text text-anchor="start" x="4.925569434683996" y="-5.434207101614026" transform="translate(518.3422465018581,183.90549973363196)" style="font-family: Arial; font-size: 12px; fill: rgb(34, 40, 81); fill-opacity: 1; white-space: pre;">5</text></g><g class="xangularaxistick"><text text-anchor="start" x="7.117654056429112" y="-0.6849332677206887" transform="translate(593.2615943336532,277.8513904382593)" style="font-family: Arial; font-size: 12px; fill: rgb(34, 40, 81); fill-opacity: 1; white-space: pre;">6</text></g><g class="xangularaxistick"><text text-anchor="start" x="7.9" y="4.199999999999999" transform="translate(620,395)" style="font-family: Arial; font-size: 12px; fill: rgb(34, 40, 81); fill-opacity: 1; white-space: pre;">7</text></g></g><text class="title" text-anchor="middle" x="0" y="0" style="font-family: Arial; font-size: 24px; fill: rgb(34, 40, 81); fill-opacity: 1; white-space: pre;" transform="translate(350,101.66015625)">Streaks</text></g></g><g class="layer-above"><g class="imagelayer"/><g class="shapelayer"/></g><g class="infolayer"><g class="g-gtitle"/></g></svg>